<svg width="152" height="52" viewBox="0 0 152 52" fill="none" xmlns="http://www.w3.org/2000/svg">
<path d="M96.8811 39.613C96.8514 39.6722 96.792 39.7313 96.7624 39.8201C95.9906 40.8849 95.1595 41.8906 94.0613 42.6597C91.5087 44.4344 88.6889 45.2626 85.5723 45.2035C82.6339 45.1147 80.0516 44.0795 77.9442 42.0385C77.024 41.1216 76.1336 40.175 75.6883 38.9327C75.629 38.7848 75.5399 38.6369 75.4509 38.489C75.3322 38.282 75.1838 38.0749 75.0947 37.8383C74.6198 36.6847 74.323 35.5015 74.2933 34.1704C74.3823 34.1409 74.5011 34.1113 74.5901 34.1113C75.8961 34.1409 104.034 34.2 104.717 34.1704C104.895 34.1704 105.044 34.1704 105.222 34.1409C105.578 34.0817 105.607 34.0225 105.637 33.638C105.637 33.4014 105.697 33.1648 105.697 32.9577C105.697 32.6619 105.697 32.3661 105.697 32.0703C105.667 31.8041 105.607 31.5379 105.607 31.2717C105.459 28.8462 104.954 26.4799 103.975 24.2318C103.055 22.1022 101.779 20.2387 100.176 18.5822C97.5638 15.8905 94.4472 14.1158 90.737 13.3467C88.0656 12.7847 85.3646 12.7256 82.6635 13.1692C79.9031 13.6129 77.3802 14.6482 75.0947 16.2751C73.9668 17.1033 72.9873 18.0794 71.9781 19.0555C68.6241 22.3684 59.4228 31.3308 59.1853 31.5675C58.5323 32.2478 49.8653 40.9441 49.1232 41.6244C47.2829 43.3104 45.1162 44.4344 42.6229 44.9077C40.8717 45.2626 39.0908 45.2626 37.3396 44.9373C34.7573 44.4048 32.6499 43.0442 30.958 41.0624C29.3552 39.1693 28.4944 36.9805 28.1679 34.5254C28.1382 34.4071 28.1679 34.2888 28.1679 34.1704C28.6132 34.1704 51.5571 34.0817 52.3288 34.0817C52.5069 34.0817 52.7444 34.0817 52.8631 33.993C53.3083 33.638 57.3747 29.5265 58.6214 28.3138C58.9479 28.018 59.0369 27.7222 58.8885 27.3081C58.7104 26.7757 58.5917 26.2432 58.4136 25.7404C57.4935 22.9304 55.95 20.5049 53.8723 18.4343C52.032 16.5708 49.8949 15.151 47.4314 14.2045C45.4724 13.4355 43.4243 13.0509 41.3169 12.9622C38.0519 12.7847 34.876 13.258 31.9078 14.6186C28.6132 16.1272 26.0902 18.5231 24.1015 21.5106C22.1425 24.4389 21.1334 27.6926 20.8069 31.183C20.5991 33.2831 20.8069 35.3536 21.3115 37.3946C21.7864 39.3468 22.4987 41.2103 23.6563 42.8667C24.3687 43.902 25.0513 44.9668 25.8824 45.9134C28.2273 48.6347 31.1658 50.439 34.6385 51.2968C37.6661 52.0658 40.753 52.1546 43.8399 51.7109C47.3126 51.208 50.4292 49.8474 53.0412 47.5402C54.6143 46.15 56.0984 44.6415 57.5825 43.1625C59.3634 41.4173 75.2728 25.6221 77.8848 23.0783C79.4282 21.5401 81.2982 20.5345 83.4056 20.0908C85.8988 19.5583 88.3624 19.7062 90.7666 20.6232C93.8535 21.8064 96.1687 23.8177 97.356 26.9531C97.4153 27.1306 97.4747 27.3081 97.5341 27.5743C97.2373 27.6039 97.0295 27.6039 96.792 27.6039C90.5292 27.6039 84.2367 27.6039 77.9738 27.6039C77.4692 27.6039 77.1427 27.7518 76.7866 28.1067C75.5993 29.2899 74.412 30.4731 73.2248 31.6562C72.453 32.3957 71.6813 33.1056 70.9096 33.8451C70.8205 33.9338 70.7315 34.0226 70.6425 34.1409C70.3753 34.4367 70.1379 34.7325 69.8707 34.9987C69.188 35.679 68.5054 36.3593 67.8227 37.01C67.5259 37.2763 67.4665 37.572 67.5852 37.927C67.7633 38.5186 67.9117 39.0806 68.1492 39.6426C69.01 41.8019 70.1972 43.7541 71.6813 45.5584C74.0558 48.4276 77.024 50.3502 80.6155 51.2672C84.296 52.2137 88.0062 52.2433 91.7165 51.3559C95.2783 50.4981 98.2761 48.6938 100.769 46.0317C102.461 44.2274 103.678 42.1568 104.776 39.968C104.806 39.9088 104.806 39.8496 104.806 39.7313C104.806 39.7313 104.747 39.7018 104.687 39.6722H96.8811V39.613ZM29.2662 27.1306C29.7707 25.9179 30.3941 24.8234 31.1955 23.7882C33.6294 20.7415 36.924 19.6471 40.6936 19.7654C43.5727 19.8541 46.1254 20.8894 48.3515 22.7233C49.7762 23.9065 50.6963 25.415 51.3197 27.101C51.3493 27.1898 51.379 27.2489 51.379 27.3377C51.379 27.3672 51.379 27.3968 51.3493 27.4856C50.7854 27.6335 29.9192 27.5743 29.1771 27.4264C29.2365 27.3377 29.2365 27.2489 29.2662 27.1306Z" fill="white"/>
<path d="M128.106 32.4253L147.726 51.9475H138.465L123.476 37.0396L108.516 51.9475H99.2556L118.846 32.4253L99.2556 12.903H108.516L123.476 27.8109L138.465 12.903H147.726L128.106 32.4253Z" fill="white"/>
<path d="M33.1545 5.50787C31.3142 3.67396 29.1771 2.22458 26.7135 1.27805C24.7545 0.50899 22.6768 0.12446 20.5991 0.0357229C17.3341 -0.141752 14.1582 0.331514 11.19 1.69216C10.0918 2.195 9.11228 2.78658 8.19215 3.46691C6.29252 4.85713 4.71939 6.57272 3.38371 8.5841C1.42472 11.5124 0.415544 14.7661 0.0890451 18.2565C0.0296817 18.7889 0 19.3213 0 19.8538V51.9471H8.16247V35.7082V34.1109H17.4528V27.6035H8.16247V22.5159V17.9903C8.63738 14.3225 10.0621 11.4829 10.5073 10.9209C12.9412 7.8742 16.2359 6.77977 20.0055 6.89809C22.8846 6.98683 25.4372 8.0221 27.6633 9.856C27.693 9.88558 27.7227 9.91516 27.7821 9.94474H36.4788C35.5884 8.34747 34.4901 6.86851 33.1545 5.50787Z" fill="white"/>
<path d="M145.797 38.6073C149.223 38.6073 152 35.8395 152 32.4253C152 29.011 149.223 26.2432 145.797 26.2432C142.37 26.2432 139.593 29.011 139.593 32.4253C139.593 35.8395 142.37 38.6073 145.797 38.6073Z" fill="#95C11F"/>
</svg>
