<svg width="172" height="58" viewBox="0 0 172 58" fill="none" xmlns="http://www.w3.org/2000/svg">
<path d="M109.629 44.1837C109.595 44.2497 109.528 44.3157 109.494 44.4147C108.621 45.6024 107.681 46.7241 106.438 47.5819C103.549 49.5615 100.359 50.4852 96.832 50.4193C93.5069 50.3203 90.5848 49.1656 88.2001 46.8891C87.1589 45.8663 86.1513 44.8106 85.6475 43.4249C85.5803 43.26 85.4795 43.095 85.3788 42.93C85.2444 42.6991 85.0765 42.4681 84.9757 42.2042C84.4383 40.9175 84.1024 39.5978 84.0689 38.1132C84.1696 38.0802 84.304 38.0472 84.4047 38.0472C85.8826 38.0802 117.723 38.1462 118.496 38.1132C118.697 38.1132 118.865 38.1132 119.067 38.0802C119.47 38.0142 119.503 37.9482 119.537 37.5193C119.537 37.2554 119.604 36.9914 119.604 36.7605C119.604 36.4306 119.604 36.1007 119.604 35.7707C119.571 35.4738 119.503 35.1769 119.503 34.88C119.335 32.1746 118.764 29.5352 117.656 27.0278C116.615 24.6524 115.171 22.5739 113.357 20.7263C110.401 17.724 106.875 15.7445 102.676 14.8867C99.6533 14.2599 96.5969 14.1939 93.5404 14.6888C90.4168 15.1836 87.5619 16.3384 84.9757 18.1529C83.6994 19.0767 82.591 20.1655 81.4491 21.2542C77.6537 24.9493 67.2417 34.9459 66.973 35.2099C66.2341 35.9687 56.4266 45.6684 55.5869 46.4272C53.5045 48.3078 51.0526 49.5615 48.2313 50.0893C46.2497 50.4852 44.2344 50.4852 42.2528 50.1223C39.3307 49.5285 36.946 48.0108 35.0316 45.8004C33.2178 43.6889 32.2438 41.2474 31.8744 38.5091C31.8408 38.3771 31.8744 38.2451 31.8744 38.1132C32.3782 38.1132 58.3411 38.0142 59.2143 38.0142C59.4159 38.0142 59.6846 38.0142 59.8189 37.9152C60.3227 37.5193 64.9242 32.9334 66.3348 31.5807C66.7043 31.2508 66.805 30.9209 66.6371 30.459C66.4356 29.8651 66.3012 29.2713 66.0997 28.7104C65.0585 25.5762 63.312 22.8708 60.9609 20.5614C58.8785 18.4829 56.4602 16.8992 53.6724 15.8435C51.4557 14.9857 49.1382 14.5568 46.7535 14.4578C43.0589 14.2599 39.4651 14.7877 36.1063 16.3054C32.3782 17.988 29.5233 20.6603 27.2729 23.9925C25.0562 27.2588 23.9142 30.8879 23.5447 34.781C23.3096 37.1234 23.5447 39.4329 24.1157 41.7093C24.6531 43.8868 25.4592 45.9653 26.7691 47.8129C27.5752 48.9676 28.3477 50.1553 29.2881 51.2111C31.9415 54.2463 35.2667 56.2589 39.1964 57.2156C42.6223 58.0734 46.1153 58.1724 49.6084 57.6775C53.5381 57.1167 57.0648 55.599 60.0204 53.0256C61.8005 51.475 63.4799 49.7924 65.1593 48.1428C67.1745 46.1963 85.1772 28.5785 88.1329 25.7411C89.8794 24.0255 91.9954 22.9038 94.3801 22.4089C97.2014 21.8151 99.9892 21.98 102.71 23.0028C106.203 24.3225 108.823 26.5659 110.166 30.0631C110.233 30.2611 110.3 30.459 110.368 30.7559C110.032 30.7889 109.797 30.7889 109.528 30.7889C102.441 30.7889 95.3206 30.7889 88.2337 30.7889C87.6627 30.7889 87.2932 30.9539 86.8902 31.3498C85.5467 32.6695 84.2032 33.9892 82.8597 35.3089C81.9865 36.1337 81.1132 36.9255 80.2399 37.7503C80.1392 37.8492 80.0384 37.9482 79.9376 38.0802C79.6353 38.4101 79.3666 38.74 79.0644 39.037C78.2919 39.7958 77.5194 40.5546 76.7468 41.2804C76.411 41.5774 76.3438 41.9073 76.4781 42.3032C76.6797 42.963 76.8476 43.5899 77.1163 44.2167C78.0903 46.6252 79.4338 48.8026 81.1132 50.8152C83.8002 54.0154 87.1589 56.1599 91.2229 57.1826C95.3877 58.2384 99.5861 58.2714 103.785 57.2816C107.815 56.3248 111.207 54.3123 114.029 51.343C115.943 49.3305 117.32 47.0211 118.563 44.5796C118.596 44.5137 118.596 44.4477 118.596 44.3157C118.596 44.3157 118.529 44.2827 118.462 44.2497H109.629V44.1837ZM33.1171 30.2611C33.6881 28.9084 34.3934 27.6877 35.3003 26.5329C38.0544 23.1348 41.7826 21.914 46.0482 22.046C49.3061 22.145 52.1946 23.2997 54.7136 25.3452C56.3258 26.6649 57.367 28.3475 58.0724 30.2281C58.106 30.327 58.1395 30.393 58.1395 30.492C58.1395 30.525 58.1395 30.558 58.106 30.657C57.4678 30.8219 33.856 30.7559 33.0163 30.591C33.0835 30.492 33.0835 30.393 33.1171 30.2611Z" fill="#211452"/>
<path d="M144.962 36.1667L167.164 57.9415H156.684L139.723 41.3134L122.795 57.9415H112.316L134.483 36.1667L112.316 14.3918H122.795L139.723 31.0199L156.684 14.3918H167.164L144.962 36.1667Z" fill="#211452"/>
<path d="M37.5169 6.14339C35.4345 4.09788 33.0162 2.48126 30.2285 1.42551C28.0117 0.567719 25.6606 0.138821 23.3095 0.0398448C19.6149 -0.158108 16.0211 0.369766 12.6624 1.8874C11.4196 2.44827 10.3113 3.10811 9.27006 3.86693C7.12048 5.41756 5.34036 7.33111 3.82894 9.57457C1.61219 12.8408 0.470221 16.4699 0.100762 20.363C0.0335872 20.9569 0 21.5507 0 22.1446V57.9411H9.23648V39.8284V38.0468H19.7493V30.7885H9.23648V25.1139V20.0661C9.77387 15.975 11.3861 12.8078 11.8899 12.181C14.644 8.78276 18.3722 7.56205 22.6378 7.69402C25.8957 7.793 28.7842 8.94772 31.3033 10.9932C31.3368 11.0262 31.3704 11.0592 31.4376 11.0922H41.2787C40.271 9.31064 39.0283 7.66103 37.5169 6.14339Z" fill="#211452"/>
<path d="M164.98 43.062C168.857 43.062 172 39.9749 172 36.1667C172 32.3585 168.857 29.2713 164.98 29.2713C161.103 29.2713 157.96 32.3585 157.96 36.1667C157.96 39.9749 161.103 43.062 164.98 43.062Z" fill="#95C11F"/>
</svg>
